<svg version="1.1" width="512.000000" height="512.000000" xmlns="http://www.w3.org/2000/svg" xmlns:xlink="http://www.w3.org/1999/xlink" overflow="hidden"><g><rect x="-1.000000" y="-1.000000" width="582.000000" height="402.000000" id="canvas_background" fill="none"/></g><g><path d=" M 130.500000 289.000000 L 184.300003 289.000000 L 184.300003 462.000000 L 130.500000 462.000000 L 130.500000 289.000000 Z M 157.500000 203.000000 C 174.699997 203.000000 188.699997 217.000000 188.699997 234.199997 C 188.699997 251.399994 174.699997 265.399994 157.500000 265.399994 C 140.199997 265.399994 126.300003 251.399994 126.300003 234.199997 C 126.300003 217.000000 140.199997 203.000000 157.500000 203.000000" id="XMLID_195_" fill="#31B0C5"/><path d=" M 218.100006 289.000000 L 269.600006 289.000000 L 269.600006 312.700012 L 270.299988 312.700012 C 277.500000 299.100006 295.000000 284.799988 321.200012 284.799988 C 375.600006 284.799988 385.700012 320.600006 385.700012 367.200012 L 385.700012 462.000000 L 332.000000 462.000000 L 332.000000 377.899994 C 332.000000 357.799988 331.700012 332.000000 304.100006 332.000000 C 276.100006 332.000000 271.899994 353.899994 271.899994 376.399994 L 271.899994 462.000000 L 218.199997 462.000000 L 218.199997 289.000000 L 218.100006 289.000000 Z" id="XMLID_192_" fill="#31B0C5"/></g></svg>